<svg id="SvgjsSvg1026" width="256" height="256" xmlns="http://www.w3.org/2000/svg" version="1.1" xmlns:xlink="http://www.w3.org/1999/xlink" xmlns:svgjs="http://svgjs.com/svgjs"><defs id="SvgjsDefs1027"></defs><g id="SvgjsG1028"><svg xmlns="http://www.w3.org/2000/svg" viewBox="0 0 64 64" width="256" height="256"><rect width="37" height="41" x="8" y="8" fill="#f0f0f0" rx="1" ry="1" class="colorf0f0f0 svgShape"></rect><path fill="#d2d2d2" d="M45 25v23a1 1 0 0 1-1 1H31.13l-1-1.73a1.01 1.01 0 0 1 .37-1.37l1.15-.66a13.949 13.949 0 0 1 0-8.48l-1.15-.66a1.01 1.01 0 0 1-.37-1.37l2-3.46a1.01 1.01 0 0 1 1.37-.37l1.16.67a13.962 13.962 0 0 1 7.33-4.24V26a1 1 0 0 1 1-1Z" class="colord2d2d2 svgShape"></path><path fill="#0a5078" d="M9 8h35a1 1 0 0 1 1 1v5H8V9a1 1 0 0 1 1-1Z" class="color0a5078 svgShape"></path><circle cx="42" cy="12" r="1" fill="#00325a" class="color00325a svgShape"></circle><circle cx="39" cy="12" r="1" fill="#00325a" class="color00325a svgShape"></circle><circle cx="36" cy="12" r="1" fill="#00325a" class="color00325a svgShape"></circle><rect width="16" height="2" x="10" y="11" fill="#00325a" rx="1" ry="1" class="color00325a svgShape"></rect><circle cx="42" cy="11" r="1" fill="#c80a50" class="colorc80a50 svgShape"></circle><circle cx="39" cy="11" r="1" fill="#01a0c8" class="color01a0c8 svgShape"></circle><circle cx="36" cy="11" r="1" fill="#fab400" class="colorfab400 svgShape"></circle><rect width="16" height="2" x="10" y="10" fill="#f0f0f0" rx="1" ry="1" class="colorf0f0f0 svgShape"></rect><rect width="33" height="12" x="10" y="21" fill="#fab400" rx="1" ry="1" class="colorfab400 svgShape"></rect><path fill="#c80a50" d="m59.481 44.9-1.148-.663a13.983 13.983 0 0 0 0-8.478l1.148-.663a1 1 0 0 0 .366-1.366l-2-3.464a1 1 0 0 0-1.366-.366l-1.162.671a13.967 13.967 0 0 0-7.328-4.243V25a1 1 0 0 0-1-1h-4a1 1 0 0 0-1 1v1.33a13.966 13.966 0 0 0-7.329 4.243L33.5 29.9a1 1 0 0 0-1.366.366l-2 3.464a1 1 0 0 0 .366 1.37l1.148.663a14 14 0 0 0 0 8.478L30.5 44.9a1 1 0 0 0-.366 1.366l2 3.464a1 1 0 0 0 1.366.37l1.162-.671a13.966 13.966 0 0 0 7.329 4.243V55a1 1 0 0 0 1 1h4a1 1 0 0 0 1-1v-1.33a13.967 13.967 0 0 0 7.328-4.243l1.162.671a1 1 0 0 0 1.366-.366l2-3.464a1 1 0 0 0-.366-1.368Z" class="colorc80a50 svgShape"></path><circle cx="44.991" cy="40" r="10" fill="#f0f0f0" class="colorf0f0f0 svgShape"></circle><path fill="#d2d2d2" d="M48.99 45.5a1 1 0 0 1-.759-1.651L50.673 41l-2.442-2.849a1 1 0 0 1 1.518-1.3l3 3.5a1 1 0 0 1 0 1.3l-3 3.5a1 1 0 0 1-.759.349zm-8 0a1 1 0 0 1-.759-.349l-3-3.5a1 1 0 0 1 0-1.3l3-3.5a1 1 0 0 1 1.518 1.3L39.308 41l2.441 2.849a1 1 0 0 1-.759 1.651zm3.001 0a.967.967 0 0 1-.275-.039 1 1 0 0 1-.688-1.236l2-7a1 1 0 0 1 1.924.55l-2 7a1 1 0 0 1-.961.725z" class="colord2d2d2 svgShape"></path><path fill="#d2d2d2" d="M54.991 40c0 .17 0 .33-.01.49a10 10 0 0 0-19.98 0c-.01-.16-.01-.32-.01-.49a10 10 0 0 1 20 0Z" class="colord2d2d2 svgShape"></path><path fill="#0a5078" d="M48.99 44.5a1 1 0 0 1-.759-1.651L50.673 40l-2.442-2.849a1 1 0 0 1 1.518-1.3l3 3.5a1 1 0 0 1 0 1.3l-3 3.5a1 1 0 0 1-.759.349zm-8 0a1 1 0 0 1-.759-.349l-3-3.5a1 1 0 0 1 0-1.3l3-3.5a1 1 0 0 1 1.518 1.3L39.308 40l2.441 2.849a1 1 0 0 1-.759 1.651zm3.001 0a.967.967 0 0 1-.275-.039 1 1 0 0 1-.688-1.236l2-7a1 1 0 0 1 1.924.55l-2 7a1 1 0 0 1-.961.725z" class="color0a5078 svgShape"></path><rect width="6" height="2" x="10" y="17" fill="#0a5078" rx="1" ry="1" class="color0a5078 svgShape"></rect><rect width="6" height="2" x="19" y="17" fill="#0a5078" rx="1" ry="1" class="color0a5078 svgShape"></rect><rect width="6" height="2" x="28" y="17" fill="#0a5078" rx="1" ry="1" class="color0a5078 svgShape"></rect><rect width="6" height="2" x="37" y="17" fill="#0a5078" rx="1" ry="1" class="color0a5078 svgShape"></rect><rect width="13" height="2" x="11" y="36" fill="#0a5078" rx="1" ry="1" class="color0a5078 svgShape"></rect><rect width="13" height="2" x="11" y="40" fill="#0a5078" rx="1" ry="1" class="color0a5078 svgShape"></rect><rect width="13" height="2" x="11" y="44" fill="#0a5078" rx="1" ry="1" class="color0a5078 svgShape"></rect><circle cx="24.5" cy="30.5" r=".5" fill="#0a5078" class="color0a5078 svgShape"></circle><circle cx="26.5" cy="30.5" r=".5" fill="#0a5078" class="color0a5078 svgShape"></circle><circle cx="28.5" cy="30.5" r=".5" fill="#0a5078" class="color0a5078 svgShape"></circle></svg></g></svg>